<svg width="249" height="155" viewBox="0 0 249 155" fill="none" xmlns="http://www.w3.org/2000/svg">
<path fill-rule="evenodd" clip-rule="evenodd" d="M0 0.00404643C0 85.6047 27.3154 155 61.0099 155C94.7044 155 122.02 85.6074 122.02 0.00404643C59.8213 -2.22403e-06 47.8568 0 0.00535092 0L0 0.00404643ZM13.8089 35.5823C13.8089 35.5823 30.7405 37.0465 39.8956 46.2815C49.0574 55.5138 51.2445 64.711 46.9734 69.0174C42.6997 73.3265 33.5781 71.1213 24.4216 61.8837C15.2652 52.6527 13.8089 35.5823 13.8089 35.5823ZM61.0072 122.601C45.4877 122.601 32.9035 111.901 32.9035 98.7062C32.9035 96.8128 33.1913 94.9747 33.6798 93.2081C36.6084 103.751 47.7149 111.605 61.0072 111.605C74.2995 111.605 85.4061 103.751 88.3347 93.2081C88.8259 94.976 89.111 96.8128 89.111 98.7062C89.111 111.905 76.5294 122.607 61.0032 122.607L61.0072 122.601ZM75.0477 69.0241C70.7767 64.7177 72.9637 55.5205 82.1255 46.2882C91.282 37.0533 108.212 35.589 108.212 35.589C108.212 35.589 106.761 52.6581 97.5995 61.8918C88.4444 71.1362 79.3161 73.336 75.0464 69.0309L75.0477 69.0241Z" fill="black"/>
<path fill-rule="evenodd" clip-rule="evenodd" d="M126.98 0.00404643C126.98 85.6047 154.296 155 187.99 155C221.685 155 249 85.6074 249 0.00404643C186.802 -2.22403e-06 174.836 0 126.986 0L126.98 0.00404643ZM195.63 37.2152C198.948 31.8764 203.563 23.1043 215.261 30.4985C226.962 37.8913 229.962 61.2939 229.962 61.2939C229.962 61.2939 192.311 42.5487 195.63 37.2179V37.2152ZM160.228 30.4945C171.925 23.1003 176.541 31.8723 179.859 37.2112C183.177 42.5473 145.527 61.2912 145.527 61.2912C145.527 61.2912 148.525 37.89 160.224 30.4945H160.228ZM215.921 116.096C212.903 105.225 201.447 97.1218 187.738 97.1218C174.03 97.1218 162.574 105.223 159.556 116.096C159.054 114.273 158.754 112.381 158.754 110.426C158.754 96.8168 171.733 85.7842 187.738 85.7842C203.748 85.7842 216.72 96.8168 216.72 110.426C216.747 112.383 216.453 114.272 215.944 116.094L215.921 116.096Z" fill="black"/>
</svg>
