<?xml version="1.0" encoding="UTF-8"?>
<svg viewBox="0 0 106.7 150.5" xmlns="http://www.w3.org/2000/svg">
 <path d="m31.758 149.97c0.088013-0.26599 0.88199-3.354 0.88199-3.706 0-0.354-0.087982-1.853 0.08902-2.294 0.176-0.44 0.44-1.764 0.52899-2.117 0.088989-0.353 0.088013-1.235-0.087982-1.852-0.17602-0.61801-0.44101-1.854-0.26401-2.824 0.176-0.97101 0.61798-3 0.70599-3.264 0.087006-0.26498 0.176-1.323-0.088013-1.765-0.26498-0.44-0.61798-1.146-0.52899-1.942 0.088013-0.793 0.353-1.94 0.26401-2.558-0.088013-0.617-0.088013-1.499-0.353-2.294-0.26502-0.79401-0.70599-2.116-0.88202-2.822-0.177-0.70697-1.059-3.529-1.235-4.412-0.177-0.88199-0.61801-2.999-0.61801-3.264 0-0.26498-0.087982-1.059-0.087982-1.059s-1.235-1.5-1.5-1.765c-0.26502-0.26498-2.382-2.028-2.735-2.028-0.354 0-1.5-0.617-1.941-0.70599-0.44101-0.08902-1.323-0.79401-2.028-1.059-0.70599-0.26599-1.677-0.44199-2.383-1.059-0.70502-0.617-1.5-1.06-2.029-1.765-0.52902-0.70502-1.147-1.5-1.676-2.118-0.52899-0.617-1.411-1.235-1.676-1.587-0.26498-0.354-0.26498 0.52899-0.617 0.52899-0.35397 0-0.79398-0.26599-1.235-0.61798-0.44101-0.353-1.235-1.059-1.323-1.411-0.088013-0.354 0.176-1.06 0.176-1.06s-1.058-1.059-1.323-1.234c-0.26401-0.177-1.323-0.97098-1.676-1.147s-1.059-1.147-1.059-1.147l0.265-3.792-0.618-2.647s-0.353-3.706 0.35303-5.117c0.70599-1.411 1.147-2.117 1.147-2.382 0-0.26498 0.17602-0.88199 0.088013-1.853-0.088013-0.97101-0.52899-1.676-0.52899-2.558 0-0.88303-0.44101-3.266-0.353-3.618 0.086975-0.353-5.382-5.559-5.382-5.559s-2.029-0.617-2.029-3.44c0-2.822 1.059-8.028 1.323-8.38 0.26502-0.354 2.382-6.177 2.382-6.177l0.706-3.087 0.97-2.823-0.441-0.53s4.676-11.203 6.881-14.026c2.206-2.823 6.97-6.176 9.087-7.059 2.117-0.88101 4.941-1.588 6.264-1.853 1.323-0.26502 2.646-0.52902 3.088-0.617 0.44098-0.08902 3.264-0.97101 4.234-1.853 0.97-0.883 1.588-0.97101 1.853-1.588 0.26502-0.617-0.353-2.824-0.087982-3.706 0.26498-0.88199 1.588-4.057 2.205-4.764 0.61801-0.70599 3.441-5.028 4.412-5.559 0.97-0.52802 1.94-1.764 2.734-1.676 0.79401 0.088989 1.235-0.617 2.294-0.617s4.235-0.52899 5.029-0.26599c0.79398 0.26599 0.79398 0.17697 1.587 0.35397 0.79401 0.177 4.059 0.88202 4.588 1.765 0.52899 0.88199 3.793 5.999 4.146 7.234s1.147 4.587 0.97 6.264c-0.176 1.676 0 3.265-0.52899 4.676-0.52902 1.411-0.88202 6.353-1.324 7.059-0.44 0.70499-1.146 2.116-1.676 2.822-0.53 0.70599-1.676 1.324-1.147 2.999 0.52899 1.677 0.087982 1.677 0.70599 2.294s0.53 1.235 0.53 1.235l-1.412-0.177-1.146-0.176s-0.88202-0.61801-0.88202-0.97202c0-0.35199-0.79401 1.236-0.79401 1.236s0.17602 2.029-0.087982 3.529c-0.26401 1.499-0.61801 1.853-0.70599 2.733-0.087006 0.883 0.177 1.236-0.26401 2.118-0.44101 0.883-0.353 1.059-0.70599 1.765-0.353 0.70599-0.52902 0.79398-0.52902 1.765 0 0.97 0.088013 2.293 0.17602 2.558 0.087982 0.26498 0.26498 0.97198 0.17697 1.412-0.088989 0.44101-0.26498 1.323-0.26498 1.323l-1.5 0.177s-0.79401 4.939-0.88199 5.646c-0.08902 0.70599-0.53 2.735-0.61801 3.088-0.088013 0.354-0.44 3-0.26401 3.265 0.176 0.26401 1.147 1.677 1.147 1.677l1.5 1.146 0.793 0.177 7.676-4.588s0.176-3.97 0.70502-4.765c0.53-0.79401 1.324-0.70599 1.589-0.44098 0.26401 0.26599 0.617 1.678 0.617 1.678v1.765l3.617-2.03 14.645-8.557 4.5-2.56 0.705-1.234 0.794-1.235 0.265-0.794s1.522 0.26498 1.588 0.396c0.067017 0.133 1.191-0.198 1.191-0.198s-0.06601-1.19 0.46301-1.059c0.52899 0.13098 0.926 0.79398 0.926 0.79398l1.059-0.397s0.13202-1.059 0.728-0.927c0.595 0.134 0.926 0.59698 0.926 0.59698l1.323-0.529s0.19898-1.258 0.59598-1.059c0.397 0.198 0.53 0.793 0.53 0.793l1.389-0.463s-0.13199-1.39 0.26502-1.124c0.396 0.26401 0.66199 0.72699 0.66199 0.72699l1.456-0.396s0.46301-1.455 0.99301-1.059 0.728 0.66199 0.728 0.66199 1.654 0.33002 1.918 0.86002c0.26498 0.52899 0.397 1.059 0.26498 1.72-0.13199 0.66199 0.46301 1.521-0.52899 1.853s-1.918 0.927-2.448 0.728c-0.52899-0.198-1.059-0.46301-1.39-0.065002-0.33102 0.396-2.051 2.778-2.779 2.978-0.728 0.19699-4.367 0.79401-4.631 0.85998-0.26502 0.065002-3.904 1.322-3.904 1.322l-5.359 2.846-6.286 4.169-9.395 6.087 0.728 0.928s0.728 0.85898 0.33099 1.323c-0.397 0.46201-0.99301 0.85898-1.125 1.124s-0.85998 1.059-0.85998 1.059-0.397 0.992-0.66202 1.323c-0.26498 0.33002-0.66199 0.992-0.79401 0.793-0.13199-0.19699-0.13199 1.192-0.065979 1.522 0.065979 0.33102 0.46298 1.258-0.06601 1.456s-1.587 0.13199-1.786 0.065979c-0.19898-0.065979-2.646-0.52899-2.646-0.52899s-3.441 2.184-3.904 2.184c-0.46399 0-4.434-0.198-4.434-0.198l-4.764 2.911-0.331 2.382s0.397 1.323 1.786 1.323h3.507c0.396 0 2.911-0.728 3.507-0.79498 0.595-0.065002 1.853 0 2.184 0.46399 0.33102 0.46301 0.66202 0.85901 0.66202 1.588 0 0.729-0.198 1.323-0.33099 1.72-0.13303 0.397-0.66202 2.118-0.66202 2.118s-1.191 1.39-1.72 1.786c-0.53 0.397-8.006 2.383-9.065 2.713-1.059 0.33102-1.191 0.33102-1.059 0.33102 0.13199 0 1.853 2.051 1.853 2.051l11.91 9.462s1.654 1.259 1.72 1.457c0.06601 0.198 1.191 1.521 1.389 2.381 0.199 0.86002 0.66199 1.721 0.59598 2.647-0.065979 0.926-0.61798 7.873-0.79398 8.756-0.17602 0.88098-0.70602 2.382-0.97 3.352-0.26502 0.97101-1.147 2.823-1.323 4.059-0.177 1.234-0.79401 5.029-0.88202 5.294-0.087982 0.26401-0.353 1.234-0.44098 2.206-0.088013 0.97-0.79401 5.557-0.97101 6.175-0.177 0.617-0.52899 3.529-0.44101 3.882 0.088013 0.353 0.088013 1.765 0.176 2.471l0.088013 0.70499-0.441 1.587-28.06-0.529z"/>
</svg>
