<svg width="192" height="190" viewBox="0 0 192 190" fill="none" xmlns="http://www.w3.org/2000/svg">
<path d="M72 142.5V39.5833L168 23.75V126.667M72 142.5C72 155.617 61.2548 166.25 48 166.25C34.7452 166.25 24 155.617 24 142.5C24 129.383 34.7452 118.75 48 118.75C61.2548 118.75 72 129.383 72 142.5ZM168 126.667C168 139.783 157.255 150.417 144 150.417C130.745 150.417 120 139.783 120 126.667C120 113.55 130.745 102.917 144 102.917C157.255 102.917 168 113.55 168 126.667Z" stroke="#1E1E1E" stroke-width="9" stroke-linecap="round" stroke-linejoin="round"/>
</svg>
