<svg width="179" height="201" viewBox="0 0 179 201" fill="none" xmlns="http://www.w3.org/2000/svg">
<path d="M53.2773 200.292C53.4249 199.937 54.7569 195.813 54.7569 195.343C54.7569 194.87 54.6093 192.868 54.9063 192.279C55.2015 191.691 55.6444 189.923 55.7937 189.451C55.943 188.98 55.9413 187.802 55.6461 186.978C55.3508 186.153 54.9063 184.502 55.2032 183.206C55.4984 181.91 56.2399 179.2 56.3876 178.847C56.5335 178.493 56.6828 177.08 56.2399 176.49C55.7954 175.902 55.2032 174.959 55.3525 173.896C55.5001 172.837 55.9447 171.305 55.7954 170.48C55.6477 169.656 55.6477 168.478 55.2032 167.416C54.7586 166.356 54.0188 164.59 53.7235 163.647C53.4266 162.703 51.9469 158.934 51.6517 157.755C51.3547 156.577 50.6149 153.75 50.6149 153.396C50.6149 153.042 50.4673 151.981 50.4673 151.981C50.4673 151.981 48.3955 149.978 47.9509 149.624C47.5063 149.27 43.9549 146.916 43.3627 146.916C42.7688 146.916 40.8463 146.092 40.1064 145.973C39.3666 145.854 37.887 144.912 36.7043 144.558C35.5199 144.203 33.8909 143.968 32.7065 143.144C31.5238 142.32 30.1901 141.728 29.3027 140.787C28.4152 139.845 27.3785 138.783 26.491 137.958C25.6036 137.134 24.1239 136.309 23.6794 135.839C23.2348 135.366 23.2348 136.545 22.6443 136.545C22.0505 136.545 21.3123 136.19 20.5725 135.72C19.8326 135.248 18.5006 134.305 18.353 133.835C18.2053 133.362 18.6482 132.42 18.6482 132.42C18.6482 132.42 16.8733 131.005 16.4288 130.771C15.9859 130.535 14.2093 129.475 13.6171 129.24C13.0249 129.005 11.8405 127.708 11.8405 127.708L12.2851 122.643L11.2483 119.108C11.2483 119.108 10.6562 114.159 11.8406 112.274C13.025 110.39 13.7648 109.447 13.7648 109.093C13.7648 108.739 14.0601 107.915 13.9124 106.618C13.7648 105.321 13.025 104.38 13.025 103.202C13.025 102.022 12.2852 98.8399 12.4328 98.3698C12.5787 97.8983 3.40397 90.9454 3.40397 90.9454C3.40397 90.9454 0.00012207 90.1214 0.00012207 86.3512C0.00012207 82.5822 1.7767 75.6294 2.21959 75.1593C2.66419 74.6865 6.21563 66.9096 6.21563 66.9096L7.40002 62.7867L9.02729 59.0165L8.28747 58.3086C8.28747 58.3086 16.1319 43.3465 19.831 39.5763C23.5318 35.806 31.5239 31.3279 35.0754 30.1486C38.6269 28.972 43.3644 28.0278 45.5839 27.6738C47.8034 27.3199 50.0228 26.9673 50.7643 26.8498C51.5041 26.7309 56.24 25.553 57.8673 24.375C59.4946 23.1958 60.5313 23.0782 60.9759 22.2542C61.4205 21.4302 60.3837 18.4826 60.8283 17.3047C61.2728 16.1267 63.4923 11.8863 64.5274 10.9421C65.5642 9.99922 70.3 4.22696 71.929 3.51779C73.5562 2.81259 75.1835 1.16188 76.5155 1.27941C77.8476 1.39826 78.5874 0.455376 80.3639 0.455376C82.1405 0.455376 87.4686 -0.251116 88.8006 0.100133C90.1326 0.455376 90.1326 0.336485 91.4629 0.572877C92.795 0.809269 98.2723 1.75086 99.1598 2.93012C100.047 4.10806 105.523 10.9421 106.115 12.5915C106.707 14.2409 108.039 18.7176 107.742 20.9573C107.447 23.1957 107.742 25.3179 106.855 27.2024C105.967 29.0868 105.375 35.6871 104.634 36.63C103.896 37.5716 102.711 39.456 101.822 40.3989C100.933 41.3418 99.0105 42.1672 99.8979 44.4042C100.785 46.6439 100.046 46.6439 101.082 47.468C102.119 48.292 101.971 49.1174 101.971 49.1174L99.6027 48.881L97.6801 48.6459C97.6801 48.6459 96.2005 47.8205 96.2005 47.3478C96.2005 46.8777 94.8684 48.9985 94.8684 48.9985C94.8684 48.9985 95.1637 51.7083 94.7208 53.7116C94.2779 55.7136 93.6841 56.1864 93.5365 57.3617C93.3905 58.541 93.8334 59.0124 93.0936 60.1904C92.3537 61.3697 92.5014 61.6047 91.9092 62.5476C91.317 63.4905 91.0217 63.608 91.0217 64.9049C91.0217 66.2003 91.1693 67.9673 91.317 68.3212C91.4646 68.6751 91.7615 69.6193 91.6139 70.207C91.4646 70.796 91.1693 71.9739 91.1693 71.9739L88.6529 72.2103C88.6529 72.2103 87.3209 78.8066 87.1733 79.7508C87.024 80.6937 86.2842 83.4035 86.1365 83.875C85.9889 84.3478 85.3984 87.8816 85.6936 88.2356C85.9889 88.5882 87.6179 90.4753 87.6179 90.4753L90.1342 92.0058L91.4646 92.2422L104.342 86.1147C104.342 86.1147 104.637 80.8126 105.525 79.7508C106.414 78.6904 107.746 78.8079 108.19 79.1619C108.633 79.5171 109.225 81.4029 109.225 81.4029V83.7602L115.293 81.049L139.862 69.6207L147.411 66.2017L148.594 64.5536L149.926 62.9042L150.37 61.8438C150.37 61.8438 152.924 62.1977 153.034 62.3727C153.147 62.5503 155.032 62.1083 155.032 62.1083C155.032 62.1083 154.922 60.519 155.809 60.6939C156.696 60.8688 157.362 61.7543 157.362 61.7543L159.139 61.2241C159.139 61.2241 159.361 59.8098 160.36 59.986C161.359 60.165 161.914 60.7833 161.914 60.7833L164.133 60.0768C164.133 60.0768 164.467 58.3967 165.133 58.6625C165.799 58.9269 166.022 59.7216 166.022 59.7216L168.352 59.1032C168.352 59.1032 168.131 57.2468 168.797 57.6021C169.461 57.9547 169.908 58.573 169.908 58.573L172.35 58.0441C172.35 58.0441 173.127 56.1009 174.016 56.6298C174.905 57.1586 175.237 57.5139 175.237 57.5139C175.237 57.5139 178.012 57.9547 178.455 58.6625C178.899 59.369 179.121 60.0768 178.899 60.9596C178.678 61.8438 179.676 62.991 178.012 63.4344C176.348 63.8778 174.794 64.6725 173.905 64.4067C173.018 64.1422 172.129 63.7883 171.573 64.3199C171.018 64.8487 168.133 68.03 166.911 68.2971C165.69 68.5602 159.585 69.3576 159.142 69.4457C158.698 69.5325 152.593 71.2113 152.593 71.2113L143.603 75.0122L133.057 80.5801L117.296 88.7096L118.518 89.949C118.518 89.949 119.739 91.0962 119.073 91.7159C118.407 92.333 117.407 92.8631 117.186 93.2171C116.964 93.571 115.743 94.6314 115.743 94.6314C115.743 94.6314 115.077 95.9563 114.632 96.3984C114.188 96.8391 113.522 97.7232 113.3 97.4575C113.079 97.1944 113.079 99.0494 113.19 99.4902C113.3 99.9323 113.966 101.17 113.079 101.435C112.191 101.699 110.416 101.611 110.083 101.523C109.749 101.435 105.644 100.816 105.644 100.816C105.644 100.816 99.8711 103.733 99.0943 103.733C98.3159 103.733 91.6558 103.469 91.6558 103.469L83.6638 107.357L83.1085 110.538C83.1085 110.538 83.7745 112.305 86.1047 112.305H91.988C92.6523 112.305 96.8715 111.332 97.8714 111.243C98.8695 111.156 100.98 111.243 101.535 111.863C102.091 112.481 102.646 113.01 102.646 113.984C102.646 114.957 102.314 115.75 102.091 116.281C101.867 116.811 100.98 119.109 100.98 119.109C100.98 119.109 98.9819 120.966 98.0945 121.495C97.2054 122.025 84.6636 124.677 82.887 125.118C81.1105 125.56 80.889 125.56 81.1105 125.56C81.3319 125.56 84.2191 128.299 84.2191 128.299L104.199 140.936C104.199 140.936 106.974 142.618 107.085 142.882C107.195 143.147 109.083 144.914 109.415 146.062C109.749 147.211 110.525 148.361 110.415 149.597C110.304 150.834 109.378 160.112 109.083 161.291C108.787 162.468 107.898 164.473 107.456 165.768C107.011 167.065 105.531 169.538 105.236 171.189C104.939 172.837 103.904 177.906 103.756 178.26C103.609 178.612 103.164 179.908 103.017 181.206C102.869 182.501 101.685 188.627 101.388 189.453C101.091 190.277 100.5 194.166 100.648 194.637C100.795 195.109 100.795 196.995 100.943 197.937L101.091 198.879L100.351 200.999L53.2773 200.292Z" fill="black"/>
</svg>
