<svg width="178" height="166" viewBox="0 0 178 166" fill="none" xmlns="http://www.w3.org/2000/svg">
<path d="M148.333 27.6667L60.2233 109.837M107.319 100.153L148.333 138.333M60.2233 56.1633L89 83M66.75 41.5C66.75 52.9599 56.7883 62.25 44.5 62.25C32.2117 62.25 22.25 52.9599 22.25 41.5C22.25 30.0401 32.2117 20.75 44.5 20.75C56.7883 20.75 66.75 30.0401 66.75 41.5ZM66.75 124.5C66.75 135.96 56.7883 145.25 44.5 145.25C32.2117 145.25 22.25 135.96 22.25 124.5C22.25 113.04 32.2117 103.75 44.5 103.75C56.7883 103.75 66.75 113.04 66.75 124.5Z" stroke="#1E1E1E" stroke-width="9" stroke-linecap="round" stroke-linejoin="round"/>
</svg>
