<?xml version='1.0' encoding='utf-8'?>
<svg xmlns="http://www.w3.org/2000/svg" enable-background="new 0 0 1795.56 2222.22" version="1.1" viewBox="0 0 1795.6 2222.2"> <style type="text/css"> .st0{fill-rule:evenodd;clip-rule:evenodd;fill:#A5A4A4;} .st1{fill-rule:evenodd;clip-rule:evenodd;fill:#262626;} .st2{fill-rule:evenodd;clip-rule:evenodd;fill:#40403F;} .st3{fill-rule:evenodd;clip-rule:evenodd;fill:#999999;} .st4{fill-rule:evenodd;clip-rule:evenodd;fill:#40B549;} </style> <path class="st0" d="m226.28 124.61h1341c47.5 0 86 38.5 86 86v1803c0 47.5-38.5 86-86 86h-1341c-47.5 0-86-38.5-86-86v-1803c0-47.5 38.5-86 86-86z"/> <path class="st1" d="m229.28 131.61h1335c45.29 0 82 36.71 82 82v1797c0 45.29-36.71 82-82 82h-1335c-45.29 0-82-36.71-82-82v-1797c0-45.29 36.71-82 82-82z"/> <path class="st2" d="m895.28 143.61c6.08 0 11 4.92 11 11s-4.92 11-11 11-11-4.92-11-11c0-6.07 4.92-11 11-11z"/> <path class="st2" d="m943.28 150.51c2.26 0 4.1 1.84 4.1 4.1s-1.84 4.1-4.1 4.1-4.1-1.84-4.1-4.1 1.83-4.1 4.1-4.1z"/> <path class="st3" d="m1477.3 122.61h85v2h-85v-2z"/> <path class="st3" d="m1653.3 261.61h2v71h-2v-71z"/> <path class="st3" d="m1653.3 346.61h2v71h-2v-71z"/> <path class="st4" d="m228.28 190.61h1337c12.7 0 23 10.3 23 23v1798c0 12.7-10.3 23-23 23h-1337c-12.7 0-23-10.3-23-23v-1798c0-12.7 10.3-23 23-23z"/> </svg>