<?xml version="1.0" encoding="UTF-8"?>
<!DOCTYPE svg  PUBLIC '-//W3C//DTD SVG 1.1//EN'  'http://www.w3.org/Graphics/SVG/1.1/DTD/svg11.dtd'>
<svg width="283.46" height="283.46" enable-background="new 0 0 283.464 283.464" version="1.1" viewBox="0 0 283.464 283.464" xmlns="http://www.w3.org/2000/svg">
 <g fill-rule="evenodd">
  <path d="m57.15 89.697c0 63.429 20.408 114.85 45.582 114.85s45.582-51.419 45.582-114.85c-46.47-3e-3 -55.409-3e-3 -91.16-3e-3zm10.317 26.363s12.65 1.085 19.49 7.928c6.845 6.841 8.479 13.656 5.288 16.847-3.193 3.193-10.008 1.559-16.849-5.286-6.841-6.84-7.929-19.49-7.929-19.49zm35.263 64.48c-11.595 0-20.997-7.929-20.997-17.706 0-1.403 0.215-2.765 0.58-4.074 2.188 7.812 10.486 13.632 20.417 13.632s18.229-5.82 20.417-13.632c0.367 1.31 0.58 2.671 0.58 4.074 0 9.78-9.4 17.71-21 17.71zm10.49-39.7c-3.191-3.191-1.557-10.006 5.288-16.847 6.841-6.843 19.49-7.928 19.49-7.928s-1.084 12.648-7.929 19.49c-6.84 6.85-13.66 8.48-16.85 5.29z"/>
  <path d="m152.02 89.697c0 63.429 20.408 114.85 45.582 114.85s45.582-51.419 45.582-114.85c-46.47-3e-3 -55.41-3e-3 -91.16-3e-3zm51.29 27.573c2.479-3.956 5.927-10.456 14.667-4.977 8.742 5.478 10.983 22.819 10.983 22.819s-28.13-13.89-25.65-17.84zm-26.45-4.98c8.739-5.479 12.188 1.021 14.667 4.977 2.479 3.954-25.65 17.843-25.65 17.843s2.24-17.34 10.98-22.82zm41.61 63.43c-2.255-8.056-10.814-14.06-21.056-14.06s-18.801 6.003-21.056 14.06c-0.375-1.351-0.599-2.753-0.599-4.202 0-10.084 9.697-18.259 21.655-18.259 11.961 0 21.653 8.175 21.653 18.259 0.02 1.45-0.2 2.85-0.58 4.2z"/>
 </g>
</svg>
